<?xml version="1.0" encoding="UTF-8" standalone="no"?><!DOCTYPE svg PUBLIC "-//W3C//DTD SVG 1.1//EN" "http://www.w3.org/Graphics/SVG/1.1/DTD/svg11.dtd"><svg width="100%" height="100%" viewBox="0 0 1033 289" version="1.1" xmlns="http://www.w3.org/2000/svg" xmlns:xlink="http://www.w3.org/1999/xlink" xml:space="preserve" xmlns:serif="http://www.serif.com/" style="fill-rule:evenodd;clip-rule:evenodd;stroke-miterlimit:10;"><path d="M306.947,58.157l0,27.781l16.588,-0c3.865,-0 7.15,-1.35 9.847,-4.044c2.696,-2.7 4.09,-5.934 4.181,-9.712c-0.091,-3.954 -1.485,-7.282 -4.181,-9.982c-2.697,-2.693 -5.982,-4.043 -9.847,-4.043l-16.588,-0Zm37.088,-6.475c5.665,5.665 8.497,12.475 8.497,20.434c-0,7.956 -2.832,14.747 -8.497,20.362c-5.663,5.622 -12.497,8.432 -20.5,8.432l-16.588,-0l0,29.265c0,2.069 -0.74,3.822 -2.225,5.26c-1.484,1.437 -3.259,2.156 -5.328,2.156c-2.069,-0 -3.822,-0.719 -5.259,-2.156c-1.441,-1.438 -2.16,-3.191 -2.16,-5.26l0,-79.572c0,-2.068 0.719,-3.821 2.16,-5.259c1.437,-1.437 3.19,-2.159 5.259,-2.159l24.141,-0c8.003,-0 14.837,2.834 20.5,8.497" style="fill:#fff;fill-rule:nonzero;"/><path d="M375.998,78.251c2.065,-2.428 4.897,-4.381 8.497,-5.866c3.593,-1.484 6.878,-2.203 9.843,-2.159c2.969,0.047 5.147,0.741 6.541,2.091c1.394,1.35 2.091,2.99 2.091,4.921c-0,1.935 -0.697,3.622 -2.091,5.06c-1.394,1.437 -3.078,2.156 -5.056,2.156c-8.363,0 -14.972,6.791 -19.825,20.366l-0,25.625c-0,1.978 -0.722,3.665 -2.16,5.056c-1.437,1.397 -3.168,2.091 -5.19,2.091c-2.025,-0 -3.731,-0.694 -5.125,-2.091c-1.394,-1.391 -2.091,-3.078 -2.091,-5.056l0,-53.138c0,-1.978 0.697,-3.64 2.091,-4.99c1.394,-1.35 3.1,-2.022 5.125,-2.022c2.022,-0 3.753,0.672 5.19,2.022c1.438,1.35 2.16,3.012 2.16,4.99l-0,0.944Z" style="fill:#fff;fill-rule:nonzero;"/><path d="M425.358,89.985c-3.237,3.775 -4.856,8.453 -4.856,14.025c0,5.575 1.619,10.341 4.856,14.297c3.507,3.325 7.732,4.99 12.679,4.99c4.943,0 9.168,-1.665 12.675,-4.99c3.509,-3.956 5.262,-8.722 5.262,-14.297c0,-5.572 -1.753,-10.25 -5.262,-14.025c-3.866,-3.416 -8.091,-5.125 -12.675,-5.125c-4.588,-0 -8.813,1.709 -12.679,5.125m12.947,48.012c-9.081,0 -16.768,-3.325 -23.062,-9.981c-6.294,-6.65 -9.441,-14.609 -9.441,-23.872c0,-9.259 3.169,-17.237 9.51,-23.937c6.337,-6.697 13.956,-10.047 22.859,-10.047c8.9,-0 16.475,3.394 22.725,10.181c6.247,6.791 9.372,14.86 9.372,24.21c-0,9.35 -3.147,17.081 -9.441,23.196c-5.934,6.835 -13.44,10.25 -22.522,10.25" style="fill:#fff;fill-rule:nonzero;"/><path d="M489.554,127.68c-6.744,-6.609 -10.116,-14.543 -10.116,-23.803c0,-9.262 3.372,-17.172 10.116,-23.737c6.744,-6.563 14.787,-9.891 24.14,-9.982c7.825,0 14.972,2.475 21.444,7.419c1.528,1.169 2.428,2.766 2.697,4.788c0.272,2.022 -0.2,3.8 -1.416,5.328c-1.212,1.528 -2.787,2.425 -4.718,2.697c-1.935,0.268 -3.666,-0.222 -5.194,-1.485c-3.956,-2.875 -8.428,-4.315 -13.419,-4.315c-4.99,-0 -9.465,1.934 -13.419,5.8c-3.956,3.865 -5.934,8.406 -5.934,13.622c0,5.215 1.956,9.734 5.866,13.553c3.912,3.822 8.384,5.731 13.418,5.731c5.038,-0 9.532,-1.438 13.488,-4.316c1.437,-1.165 3.147,-1.618 5.125,-1.347c1.978,0.269 3.575,1.169 4.787,2.697c1.216,1.528 1.688,3.26 1.416,5.191c-0.269,1.934 -1.169,3.575 -2.697,4.925c-6.653,4.766 -13.803,7.147 -21.444,7.147c-9.353,-0 -17.396,-3.303 -24.14,-9.913" style="fill:#fff;fill-rule:nonzero;"/><path d="M580.319,82.972c-5.216,0.269 -9.397,1.887 -12.544,4.856c-3.147,2.966 -5.037,6.113 -5.665,9.441l38.172,-0c-0.813,-3.147 -2.991,-6.207 -6.544,-9.172c-3.553,-2.969 -8.025,-4.675 -13.419,-5.125m32.5,19.15c0,1.978 -0.653,3.575 -1.956,4.787c-1.303,1.216 -3.031,1.822 -5.191,1.822l-42.884,0c0.806,3.866 2.337,6.835 4.581,8.9c2.878,3.328 7.081,5.328 12.613,6.003c5.528,0.675 10.315,-0.428 14.362,-3.303c1.347,-1.437 3.147,-2.159 5.394,-2.159c2.247,-0 3.822,0.584 4.725,1.753c2.512,2.787 2.512,5.709 -0,8.766c-6.478,5.934 -14.413,8.881 -23.81,8.834c-9.393,-0.044 -17.262,-3.35 -23.6,-9.913c-6.337,-6.562 -9.553,-14.475 -9.643,-23.737c0.09,-9.259 3.306,-17.194 9.643,-23.803c6.338,-6.606 14.004,-9.913 22.994,-9.913c8.991,0 16.566,2.947 22.728,8.835c6.153,5.887 9.507,13.375 10.044,22.456l0,0.672Z" style="fill:#fff;fill-rule:nonzero;"/><path d="M654.901,122.892c4.944,-0 9.191,-1.866 12.744,-5.597c3.55,-3.728 5.328,-8.181 5.328,-13.35c-0,-5.172 -1.753,-9.644 -5.26,-13.422c-3.506,-3.775 -7.781,-5.662 -12.812,-5.662c-5.038,-0 -9.309,1.887 -12.816,5.662c-3.506,3.778 -5.256,8.25 -5.256,13.422c0,5.169 1.772,9.622 5.325,13.35c3.55,3.731 7.8,5.597 12.747,5.597m32.769,7.419c-0,1.978 -0.719,3.687 -2.157,5.125c-1.437,1.437 -3.1,2.156 -4.99,2.156c-1.885,-0 -3.485,-0.56 -4.785,-1.685c-1.306,-1.125 -2.14,-2.496 -2.496,-4.115c-5.663,3.869 -11.779,5.8 -18.341,5.8c-9.081,-0 -16.816,-3.303 -23.2,-9.913c-6.384,-6.609 -9.575,-14.518 -9.575,-23.734c-0,-9.216 3.191,-17.15 9.575,-23.806c6.384,-6.653 14.119,-9.982 23.2,-9.982c6.653,0 12.678,1.888 18.072,5.666l-0,-25.353c-0,-1.978 0.719,-3.688 2.156,-5.125c1.441,-1.438 3.169,-2.159 5.194,-2.159c2.019,-0 3.753,0.721 5.19,2.159c1.438,1.437 2.157,3.147 2.157,5.125l-0,79.841Z" style="fill:#fff;fill-rule:nonzero;"/><path d="M756.317,109.541c0,7.643 -2.812,14.228 -8.428,19.756c-5.622,5.531 -12.275,8.297 -19.962,8.297c-7.688,-0 -14.294,-2.744 -19.825,-8.228c-5.529,-5.485 -8.294,-12.091 -8.294,-19.825l-0,-32.232c-0,-1.89 0.697,-3.553 2.09,-4.993c1.391,-1.438 3.079,-2.157 5.057,-2.157c1.978,0 3.665,0.719 5.056,2.157c1.397,1.44 2.094,3.103 2.094,4.993l-0,32.232c-0,3.865 1.325,7.125 3.978,9.778c2.65,2.653 5.909,3.978 9.778,3.978c3.866,-0 7.169,-1.325 9.912,-3.978c2.741,-2.653 4.157,-5.913 4.25,-9.778l0,-32.232c0,-1.89 0.672,-3.553 2.019,-4.993c1.35,-1.438 2.991,-2.157 4.925,-2.157c1.931,0 3.641,0.719 5.122,2.157c1.488,1.44 2.228,3.103 2.228,4.993l0,32.232Z" style="fill:#fff;fill-rule:nonzero;"/><path d="M783.963,78.251c2.065,-2.428 4.897,-4.381 8.497,-5.866c3.593,-1.484 6.878,-2.203 9.843,-2.159c2.969,0.047 5.147,0.741 6.541,2.091c1.394,1.35 2.094,2.99 2.094,4.921c-0,1.935 -0.7,3.622 -2.094,5.06c-1.394,1.437 -3.078,2.156 -5.056,2.156c-8.363,0 -14.969,6.791 -19.825,20.366l-0,25.625c-0,1.978 -0.722,3.665 -2.156,5.056c-1.441,1.397 -3.172,2.091 -5.197,2.091c-2.019,-0 -3.728,-0.694 -5.122,-2.091c-1.394,-1.391 -2.091,-3.078 -2.091,-5.056l0,-53.138c0,-1.978 0.697,-3.64 2.091,-4.99c1.394,-1.35 3.103,-2.022 5.122,-2.022c2.025,-0 3.756,0.672 5.197,2.022c1.434,1.35 2.156,3.012 2.156,4.99l-0,0.944Z" style="fill:#fff;fill-rule:nonzero;"/><path d="M826.849,103.943c0,5.441 1.641,10.004 4.925,13.688c3.279,3.691 7.507,5.531 12.679,5.531c5.168,0 9.437,-1.84 12.809,-5.531c3.372,-3.684 5.059,-8.225 5.059,-13.622c0,-5.394 -1.709,-9.978 -5.125,-13.753c-3.418,-3.778 -7.665,-5.666 -12.743,-5.666c-5.085,0 -9.288,1.866 -12.61,5.597c-3.331,3.731 -4.994,8.316 -4.994,13.756m-5.19,23.804c-6.163,-6.563 -9.238,-14.497 -9.238,-23.804c0,-9.306 3.075,-17.262 9.238,-23.871c6.156,-6.607 13.778,-9.913 22.859,-9.913c6.381,0 12.36,1.978 17.941,5.934c0.444,-1.706 1.3,-3.125 2.559,-4.246c1.256,-1.125 2.81,-1.688 4.653,-1.688c1.841,0 3.463,0.719 4.853,2.156c1.394,1.441 2.094,3.15 2.094,5.128l0,53c0,1.979 -0.7,3.666 -2.094,5.06c-1.39,1.394 -3.012,2.09 -4.853,2.09c-1.843,0 -3.397,-0.54 -4.653,-1.618c-1.259,-1.082 -2.115,-2.475 -2.559,-4.182c-5.488,3.866 -11.466,5.8 -17.941,5.8c-9.081,0 -16.703,-3.281 -22.859,-9.846" style="fill:#fff;fill-rule:nonzero;"/><path d="M896.301,50.603c0,-2.068 0.719,-3.821 2.16,-5.259c1.434,-1.437 3.193,-2.159 5.262,-2.159c2.063,-0 3.841,0.722 5.328,2.159c1.485,1.438 2.222,3.191 2.222,5.259l0,79.572c0,2.069 -0.737,3.822 -2.222,5.26c-1.487,1.437 -3.265,2.156 -5.328,2.156c-2.069,-0 -3.828,-0.719 -5.262,-2.156c-1.441,-1.438 -2.16,-3.191 -2.16,-5.26l0,-79.572Z" style="fill:#fff;fill-rule:nonzero;"/><path d="M315.039,259.354l0,-84.562l-28.456,-0c-0.9,-0 -1.666,-0.335 -2.294,-1.01c-0.631,-0.675 -0.944,-1.462 -0.944,-2.362c0,-0.897 0.313,-1.659 0.944,-2.291c0.628,-0.628 1.394,-0.943 2.294,-0.943l63.387,-0c0.897,-0 1.663,0.315 2.291,0.943c0.628,0.632 0.944,1.394 0.944,2.291c-0,0.9 -0.316,1.687 -0.944,2.362c-0.628,0.675 -1.394,1.01 -2.291,1.01l-28.459,-0l-0,84.562c-0,0.9 -0.316,1.666 -0.941,2.291c-0.631,0.634 -1.397,0.947 -2.293,0.947c-0.9,-0 -1.666,-0.313 -2.294,-0.947c-0.628,-0.625 -0.944,-1.391 -0.944,-2.291" style="fill:#fff;fill-rule:nonzero;"/><path d="M390.833,209.049c-4.675,-4.047 -10.094,-6.069 -16.25,-6.069c-6.16,0 -11.579,2 -16.25,6.003c-4.679,4 -7.644,9.147 -8.904,15.441l50.035,0c-1.078,-6.203 -3.956,-11.328 -8.631,-15.375m15.643,18.206l0,0.541c0,0.9 -0.315,1.619 -0.94,2.156c-0.632,0.541 -1.397,0.81 -2.294,0.81l-54.216,-0c0.357,7.196 3.01,13.218 7.957,18.071c4.943,4.857 10.834,7.285 17.665,7.285c4.406,-0 8.5,-1.078 12.275,-3.238c3.775,-2.156 6.788,-5.078 9.035,-8.765c1.078,-1.797 2.515,-2.16 4.315,-1.078c1.8,1.259 2.16,2.787 1.081,4.584c-2.881,4.587 -6.678,8.228 -11.396,10.925c-4.722,2.697 -9.825,4.047 -15.31,4.047c-8.9,-0 -16.475,-3.216 -22.725,-9.644c-6.25,-6.428 -9.372,-14.206 -9.372,-23.331c0,-9.125 3.122,-16.928 9.372,-23.4c6.25,-6.475 13.713,-9.713 22.388,-9.713c8.678,0 16.028,2.95 22.053,8.835c6.022,5.89 9.394,13.197 10.112,21.915" style="fill:#fff;fill-rule:nonzero;"/><path d="M426.909,252.949c-6.61,-6.428 -9.913,-14.25 -9.913,-23.469c0,-9.213 3.303,-17.013 9.913,-23.397c6.609,-6.384 14.25,-9.578 22.925,-9.578c8.678,-0 16.072,2.431 22.187,7.287c0.719,0.447 1.122,1.122 1.213,2.022c0.09,0.897 -0.181,1.71 -0.81,2.425c-1.346,1.532 -2.831,1.71 -4.45,0.541c-4.943,-3.953 -10.921,-5.934 -17.937,-5.934c-7.013,-0 -13.194,2.609 -18.544,7.821c-5.35,5.219 -8.025,11.51 -8.025,18.882c0,7.375 2.675,13.647 8.025,18.812c5.35,5.172 11.51,7.756 18.478,7.756c6.966,0 12.969,-1.931 18.003,-5.8c1.619,-1.165 3.125,-0.943 4.519,0.675c1.394,1.619 1.147,3.15 -0.74,4.588c-6.025,4.675 -12.947,7.012 -20.769,7.012c-9.441,0 -17.466,-3.212 -24.075,-9.643" style="fill:#fff;fill-rule:nonzero;"/><path d="M492.252,262.592l-0.675,0c-2.157,0 -3.235,-1.081 -3.235,-3.237l0,-87.935c0,-0.897 0.313,-1.659 0.944,-2.29c0.625,-0.628 1.391,-0.944 2.291,-0.944c0.896,-0 1.687,0.316 2.362,0.944c0.672,0.631 1.009,1.393 1.009,2.29l0,34.797c5.485,-6.472 12.275,-9.709 20.366,-9.709c8.091,-0 14.813,2.45 20.163,7.35c5.346,4.9 8.025,11.128 8.025,18.678l-0,36.819c-0,0.9 -0.338,1.665 -1.013,2.29c-0.675,0.632 -1.462,0.947 -2.359,0.947c-0.9,0 -1.666,-0.315 -2.294,-0.947c-0.628,-0.625 -0.944,-1.39 -0.944,-2.29l0,-36.819c0,-5.666 -2.022,-10.316 -6.069,-13.959c-4.046,-3.641 -9.015,-5.46 -14.903,-5.46c-5.89,0 -10.856,1.819 -14.903,5.46c-4.044,3.643 -6.069,8.293 -6.069,13.959l0,37.225c0,0.178 -0.181,0.606 -0.54,1.281c-0.36,0.672 -0.988,1.144 -1.888,1.416c-0.09,0.087 -0.181,0.134 -0.268,0.134" style="fill:#fff;fill-rule:nonzero;"/><path d="M568.317,259.894c-0.454,1.8 -1.485,2.697 -3.104,2.697l-0.809,0c-0.987,-0.272 -1.709,-0.853 -2.156,-1.753c-0.094,-0.091 -0.138,-0.225 -0.138,-0.403l-0.134,-0.272l-0,-60.284c-0,-0.897 0.316,-1.663 0.944,-2.291c0.631,-0.631 1.393,-0.947 2.293,-0.947c0.897,0 1.638,0.316 2.225,0.947c0.585,0.628 0.879,1.394 0.879,2.291l-0,6.337c5.303,-6.381 11.89,-9.575 19.756,-9.575c7.869,0 14.428,2.631 19.69,7.891c5.263,5.259 7.888,11.575 7.888,18.95l-0,35.872c-0,0.9 -0.313,1.665 -0.941,2.293c-0.628,0.632 -1.4,0.944 -2.297,0.944c-0.896,0 -1.662,-0.312 -2.287,-0.944c-0.631,-0.628 -0.947,-1.393 -0.947,-2.293l0,-35.872c0,-5.578 -1.978,-10.363 -5.931,-14.366c-3.963,-3.997 -8.747,-6 -14.366,-6c-5.619,0 -10.409,1.978 -14.365,5.931c-3.954,3.96 -6.022,8.769 -6.2,14.435l-0,36.412Z" style="fill:#fff;fill-rule:nonzero;"/><path d="M662.451,202.845c-6.743,-0 -12.565,2.609 -17.465,7.822c-4.903,5.219 -7.35,11.487 -7.35,18.812c-0,7.332 2.447,13.603 7.35,18.816c4.9,5.216 10.722,7.822 17.465,7.822c6.744,-0 12.563,-2.606 17.463,-7.822c4.9,-5.213 7.353,-11.484 7.353,-18.816c-0,-7.325 -2.453,-13.593 -7.353,-18.812c-4.9,-5.213 -10.719,-7.822 -17.463,-7.822m-22.118,49.969c-6.116,-6.519 -9.172,-14.272 -9.172,-23.266c-0,-8.987 3.056,-16.741 9.172,-23.262c6.115,-6.519 13.487,-9.779 22.118,-9.779c8.632,0 16.003,3.26 22.119,9.779c6.109,6.521 9.169,14.275 9.169,23.262c-0,8.994 -3.06,16.747 -9.169,23.266c-6.116,6.518 -13.487,9.778 -22.119,9.778c-8.631,-0 -16.003,-3.26 -22.118,-9.778" style="fill:#fff;fill-rule:nonzero;"/><path d="M710.461,259.354l0,-87.934c0,-0.897 0.316,-1.659 0.947,-2.291c0.628,-0.628 1.391,-0.943 2.291,-0.943c0.897,-0 1.687,0.315 2.359,0.943c0.678,0.632 1.013,1.394 1.013,2.291l-0,87.934c-0,0.9 -0.335,1.666 -1.013,2.291c-0.672,0.634 -1.462,0.947 -2.359,0.947c-0.9,-0 -1.663,-0.313 -2.291,-0.947c-0.631,-0.625 -0.947,-1.391 -0.947,-2.291" style="fill:#fff;fill-rule:nonzero;"/><path d="M763.598,202.845c-6.743,-0 -12.565,2.609 -17.465,7.822c-4.903,5.219 -7.35,11.487 -7.35,18.812c-0,7.332 2.447,13.603 7.35,18.816c4.9,5.216 10.722,7.822 17.465,7.822c6.744,-0 12.563,-2.606 17.463,-7.822c4.9,-5.213 7.353,-11.484 7.353,-18.816c0,-7.325 -2.453,-13.593 -7.353,-18.812c-4.9,-5.213 -10.719,-7.822 -17.463,-7.822m-22.118,49.969c-6.116,-6.519 -9.172,-14.272 -9.172,-23.266c-0,-8.987 3.056,-16.741 9.172,-23.262c6.115,-6.519 13.487,-9.779 22.118,-9.779c8.632,0 16.004,3.26 22.119,9.779c6.11,6.521 9.169,14.275 9.169,23.262c-0,8.994 -3.059,16.747 -9.169,23.266c-6.115,6.518 -13.487,9.778 -22.119,9.778c-8.631,-0 -16.003,-3.26 -22.118,-9.778" style="fill:#fff;fill-rule:nonzero;"/><path d="M812.689,229.347c0,7.331 2.406,13.578 7.216,18.746c4.809,5.172 10.606,7.754 17.4,7.754c6.787,-0 12.584,-2.582 17.393,-7.754c4.81,-5.168 7.216,-11.44 7.216,-18.812c0,-7.372 -2.406,-13.6 -7.216,-18.681c-4.809,-5.078 -10.606,-7.622 -17.393,-7.622c-6.794,-0 -12.591,2.565 -17.4,7.687c-4.81,5.128 -7.216,11.353 -7.216,18.682m55.7,-29.604l0,57.588c0,8.541 -3.031,15.847 -9.103,21.919c-6.069,6.065 -13.419,9.103 -22.05,9.103c-4.406,-0 -8.991,-1.035 -13.756,-3.103c-1.8,-1.263 -2.25,-2.7 -1.35,-4.316c0.99,-2.069 2.431,-2.562 4.315,-1.484c3.419,1.618 7.013,2.428 10.791,2.428c6.831,-0 12.653,-2.385 17.462,-7.15c4.81,-4.766 7.216,-10.563 7.216,-17.397l0,-8.091c-2.787,4.044 -6.334,7.216 -10.65,9.507c-4.316,2.296 -8.994,3.44 -14.028,3.44c-8.631,0 -15.959,-3.215 -21.984,-9.644c-6.022,-6.428 -9.035,-14.159 -9.035,-23.196c0,-9.038 3.035,-16.766 9.103,-23.197c6.069,-6.425 13.372,-9.644 21.916,-9.644c4.947,-0 9.597,1.169 13.959,3.506c4.36,2.341 7.932,5.488 10.719,9.444l0,-9.713c0,-0.896 0.338,-1.662 1.013,-2.29c0.675,-0.628 1.437,-0.947 2.296,-0.947c0.85,-0 1.591,0.319 2.219,0.947c0.631,0.628 0.947,1.394 0.947,2.29" style="fill:#fff;fill-rule:nonzero;"/><path d="M886.731,259.354l-0,-59.609c-0,-0.897 0.312,-1.663 0.944,-2.294c0.628,-0.628 1.415,-0.944 2.359,-0.944c0.944,0 1.731,0.316 2.359,0.944c0.632,0.631 0.947,1.397 0.947,2.294l0,59.609c0,0.9 -0.34,1.666 -1.012,2.291c-0.678,0.634 -1.466,0.947 -2.363,0.947c-0.897,-0 -1.662,-0.313 -2.29,-0.947c-0.632,-0.625 -0.944,-1.391 -0.944,-2.291m-0,-78.087l-0,-3.1c-0,-0.9 0.312,-1.666 0.944,-2.294c0.628,-0.628 1.393,-0.947 2.29,-0.947c0.897,0 1.685,0.319 2.363,0.947c0.672,0.628 1.012,1.394 1.012,2.294l0,3.1c0,0.99 -0.34,1.822 -1.012,2.497c-0.678,0.672 -1.466,1.009 -2.363,1.009c-0.897,0 -1.662,-0.337 -2.29,-1.009c-0.632,-0.675 -0.944,-1.507 -0.944,-2.497" style="fill:#fff;fill-rule:nonzero;"/><path d="M957.666,209.049c-4.675,-4.047 -10.091,-6.069 -16.25,-6.069c-6.159,0 -11.578,2 -16.25,6.003c-4.675,4 -7.647,9.147 -8.903,15.441l50.037,0c-1.081,-6.203 -3.959,-11.328 -8.634,-15.375m15.647,18.206l-0,0.541c-0,0.9 -0.319,1.619 -0.947,2.156c-0.628,0.541 -1.394,0.81 -2.291,0.81l-54.218,-0c0.359,7.196 3.012,13.218 7.959,18.071c4.944,4.857 10.834,7.285 17.666,7.285c4.403,-0 8.496,-1.078 12.275,-3.238c3.775,-2.156 6.787,-5.078 9.037,-8.765c1.075,-1.797 2.513,-2.16 4.313,-1.078c1.8,1.259 2.159,2.787 1.078,4.584c-2.878,4.587 -6.675,8.228 -11.394,10.925c-4.722,2.697 -9.825,4.047 -15.309,4.047c-8.9,-0 -16.475,-3.216 -22.722,-9.644c-6.25,-6.428 -9.375,-14.206 -9.375,-23.331c-0,-9.125 3.125,-16.928 9.375,-23.4c6.247,-6.475 13.709,-9.713 22.387,-9.713c8.672,0 16.025,2.95 22.05,8.835c6.022,5.89 9.391,13.197 10.116,21.915" style="fill:#fff;fill-rule:nonzero;"/><path d="M984.372,253.15c-1.528,-1.35 -1.666,-2.788 -0.406,-4.316c0.54,-0.715 1.259,-1.122 2.159,-1.215c0.9,-0.088 1.706,0.184 2.428,0.809c7.013,5.128 13.397,7.688 19.15,7.688c5.753,-0 10.294,-1.344 13.622,-4.044c3.325,-2.244 4.966,-4.875 4.922,-7.891c-0.044,-3.009 -1.528,-5.684 -4.45,-8.022c-2.922,-2.34 -7.669,-4.047 -14.228,-5.125l-0.269,-0.137c-7.012,-1.256 -12.003,-2.966 -14.972,-5.125c-4.765,-2.785 -7.147,-6.744 -7.147,-11.869c0,-5.122 2.382,-9.437 7.147,-12.944c4.319,-2.968 9.71,-4.453 16.185,-4.453c2.609,0 5.234,0.428 7.89,1.281c2.65,0.857 4.672,1.666 6.066,2.432c1.397,0.762 3.306,1.909 5.734,3.434c0.719,0.541 1.166,1.259 1.35,2.163c0.178,0.896 0.044,1.706 -0.406,2.425c-0.45,0.718 -1.125,1.168 -2.022,1.35c-0.9,0.178 -1.709,0.043 -2.428,-0.407c-2.247,-1.528 -3.934,-2.628 -5.059,-3.303c-1.122,-0.675 -2.766,-1.394 -4.922,-2.156c-2.157,-0.766 -4.228,-1.15 -6.203,-1.15c-5.216,-0 -9.307,1.194 -12.272,3.575c-2.966,2.384 -4.45,4.878 -4.45,7.484c-0,2.61 1.256,4.903 3.775,6.882c3.147,2.156 7.64,3.684 13.484,4.581l0.272,-0c5.844,0.903 11.194,2.7 16.05,5.397c4.944,3.234 7.416,7.575 7.416,13.012c-0,5.441 -2.45,9.981 -7.347,13.622c-4.903,3.641 -10.453,5.463 -16.657,5.463c-8.543,-0.088 -16.681,-3.238 -24.412,-9.441" style="fill:#fff;fill-rule:nonzero;"/><path d="M134.577,211.593c-30.572,0 -55.441,-24.869 -55.441,-55.441c0,-0.725 0.016,-1.446 0.044,-2.168c0.041,-1.1 0.238,-4.45 1.313,-4.388c1.093,0.041 2.562,1.897 2.65,4.528c0.021,0.672 -0.041,1.35 -0.041,2.028c-0,28.382 23.094,51.475 51.475,51.475c28.381,0 51.475,-23.093 51.475,-51.475c-0,-7.053 -1.397,-13.878 -4.15,-20.287c-0.431,-1.006 0.031,-2.172 1.041,-2.603c1.003,-0.444 2.168,0.031 2.603,1.037c2.965,6.907 4.472,14.263 4.472,21.853c-0,30.572 -24.869,55.441 -55.441,55.441" style="fill:#e0e0e0;fill-rule:nonzero;"/><path d="M134.577,211.593c-30.572,0 -55.441,-24.869 -55.441,-55.441c0,-0.725 0.016,-1.446 0.044,-2.168c0.041,-1.1 0.238,-4.45 1.313,-4.388c1.093,0.041 2.562,1.897 2.65,4.528c0.021,0.672 -0.041,1.35 -0.041,2.028c-0,28.382 23.094,51.475 51.475,51.475c28.381,0 51.475,-23.093 51.475,-51.475c-0,-7.053 -1.397,-13.878 -4.15,-20.287c-0.431,-1.006 0.031,-2.172 1.041,-2.603c1.003,-0.444 2.168,0.031 2.603,1.037c2.965,6.907 4.472,14.263 4.472,21.853c-0,30.572 -24.869,55.441 -55.441,55.441Z" style="fill:none;fill-rule:nonzero;stroke:#e2e0df;stroke-width:2.34px;"/><path d="M101.022,112.506c-0.6,0 -1.194,-0.272 -1.584,-0.787c-0.66,-0.875 -0.488,-2.119 0.384,-2.775c9.694,-7.335 21.253,-11.207 33.431,-11.207c8.16,0 16.013,1.732 23.344,5.144c0.994,0.463 1.422,1.644 0.959,2.635c-0.459,0.993 -1.634,1.431 -2.634,0.959c-6.8,-3.163 -14.091,-4.772 -21.669,-4.772c-11.306,0 -22.04,3.6 -31.037,10.4c-0.357,0.272 -0.778,0.403 -1.194,0.403" style="fill:#652d90;fill-rule:nonzero;"/><path d="M101.022,112.506c-0.6,0 -1.194,-0.272 -1.584,-0.787c-0.66,-0.875 -0.488,-2.119 0.384,-2.775c9.694,-7.335 21.253,-11.207 33.431,-11.207c8.16,0 16.013,1.732 23.344,5.144c0.994,0.463 1.422,1.644 0.959,2.635c-0.459,0.993 -1.634,1.431 -2.634,0.959c-6.8,-3.163 -14.091,-4.772 -21.669,-4.772c-11.306,0 -22.04,3.6 -31.037,10.4c-0.357,0.272 -0.778,0.403 -1.194,0.403Z" style="fill:#fff;fill-rule:nonzero;stroke:#fff;stroke-width:2.34px;"/><path d="M129.737,186.588c-0.619,0 -1.206,-0.291 -1.581,-0.787l-49.941,-66.022c-0.662,-0.875 -0.487,-2.119 0.385,-2.775c0.872,-0.666 2.112,-0.494 2.778,0.384l48.231,63.763l108.897,-168.463c0.591,-0.922 1.819,-1.191 2.741,-0.591c0.921,0.597 1.184,1.822 0.59,2.744l-110.434,170.841c-0.35,0.54 -0.947,0.878 -1.591,0.906l-0.075,0Z" style="fill:#fff;fill-rule:nonzero;stroke:#fff;stroke-width:2.34px;"/><path d="M251.2,156.285c-0,27.787 -9.347,52.875 -25.11,72.49l0.738,0.741c2.319,2.319 3.769,5.184 4.365,8.194c16.938,-20.885 27.113,-47.466 27.113,-76.388c-0,-27.837 -10.097,-58.994 -27.444,-80.715c-0.681,-0.854 -2.931,-4.244 -3.79,-3.563c-0.857,0.681 -0.994,1.931 -0.313,2.788c16.778,21.006 24.441,49.521 24.441,76.453" style="fill:#e0e0e0;fill-rule:nonzero;"/><path d="M218.272,153.178c0,19.054 -6.3,36.663 -16.928,50.854l2.825,2.821c11.328,-14.931 18.069,-33.528 18.069,-53.675c-0,-18.453 -5.597,-36.15 -16.188,-51.184c-0.628,-0.894 -1.862,-1.109 -2.762,-0.481c-0.897,0.631 -1.113,1.872 -0.478,2.765c10.115,14.363 15.462,31.269 15.462,48.9" style="fill:#e0e0e0;fill-rule:nonzero;"/><path d="M218.272,153.178c0,19.054 -6.3,36.663 -16.928,50.854l2.825,2.821c11.328,-14.931 18.069,-33.528 18.069,-53.675c-0,-18.453 -5.597,-36.15 -16.188,-51.184c-0.628,-0.894 -1.862,-1.109 -2.762,-0.481c-0.897,0.631 -1.113,1.872 -0.478,2.765c10.115,14.363 15.462,31.269 15.462,48.9Z" style="fill:none;fill-rule:nonzero;stroke:#e2e0df;stroke-width:2.34px;"/><path d="M177.852,76.161c-13.491,-7.829 -28.913,-11.969 -44.597,-11.969c-49.066,-0 -88.982,39.922 -88.982,88.987c0,49.063 39.916,88.982 88.982,88.982c17.328,-0 33.503,-4.997 47.193,-13.6l-2.868,-2.869c-12.916,7.925 -28.094,12.503 -44.325,12.503c-46.878,-0 -85.016,-38.141 -85.016,-85.016c0,-46.881 38.138,-85.022 85.016,-85.022c14.984,0 29.718,3.957 42.606,11.435c0.95,0.547 2.159,0.228 2.712,-0.722c0.55,-0.947 0.225,-2.159 -0.721,-2.709" style="fill:#e0e0e0;fill-rule:nonzero;"/><path d="M177.852,76.161c-13.491,-7.829 -28.913,-11.969 -44.597,-11.969c-49.066,-0 -88.982,39.922 -88.982,88.987c0,49.063 39.916,88.982 88.982,88.982c17.328,-0 33.503,-4.997 47.193,-13.6l-2.868,-2.869c-12.916,7.925 -28.094,12.503 -44.325,12.503c-46.878,-0 -85.016,-38.141 -85.016,-85.016c0,-46.881 38.138,-85.022 85.016,-85.022c14.984,0 29.718,3.957 42.606,11.435c0.95,0.547 2.159,0.228 2.712,-0.722c0.55,-0.947 0.225,-2.159 -0.721,-2.709Z" style="fill:none;fill-rule:nonzero;stroke:#e0e0e0;stroke-width:2.34px;"/><path d="M204.115,252.228l-1.54,-1.541c-18.76,13.031 -41.753,20.616 -66.888,20.616c-64.797,-0 -117.3,-45.763 -117.3,-110.56c0,-64.793 58.303,-121.212 118.044,-122.203c18.65,-0.309 28.009,0.247 49.8,7.653c1.047,0.357 2.172,0.1 2.666,-0.875c0.493,-0.975 0.315,-1.49 -0.66,-1.987c-17.075,-8.644 -35.509,-13.028 -54.794,-13.028c-66.981,-0 -120.043,56.769 -120.043,123.75c-0,66.984 56.447,128.747 123.428,128.747c28.428,-0 54.584,-9.841 75.303,-26.26c-2.941,-0.618 -5.744,-2.04 -8.016,-4.312" style="fill:#e0e0e0;fill-rule:nonzero;"/><path d="M160.383,205.691l45.134,45.137c5.491,5.491 14.422,5.488 19.91,0c5.487,-5.491 5.487,-14.422 -0,-19.912l-44.116,-44.116c-2.816,4.075 -9.866,13.022 -20.928,18.891m55.087,53.215c-4.618,0 -9.24,-1.759 -12.756,-5.275l-49.1,-49.1l2.584,-1.19c14.885,-6.86 22.988,-20.535 23.069,-20.672l1.297,-2.222l47.669,47.665c7.031,7.035 7.034,18.485 -0,25.519c-3.519,3.516 -8.141,5.275 -12.763,5.275" style="fill:#652d90;fill-rule:nonzero;"/><path d="M160.383,205.691l45.134,45.137c5.491,5.491 14.422,5.488 19.91,0c5.487,-5.491 5.487,-14.422 -0,-19.912l-44.116,-44.116c-2.816,4.075 -9.866,13.022 -20.928,18.891Zm55.087,53.215c-4.618,0 -9.24,-1.759 -12.756,-5.275l-49.1,-49.1l2.584,-1.19c14.885,-6.86 22.988,-20.535 23.069,-20.672l1.297,-2.222l47.669,47.665c7.031,7.035 7.034,18.485 -0,25.519c-3.519,3.516 -8.141,5.275 -12.763,5.275Z" style="fill:#fff;fill-rule:nonzero;stroke:#fff;stroke-width:2.34px;"/><path d="M133.254,208.619c-30.572,-0 -55.441,-24.869 -55.441,-55.441c0,-0.725 0.016,-1.447 0.044,-2.169c0.041,-1.1 0.978,-1.975 2.053,-1.912c1.094,0.04 1.95,0.959 1.91,2.053c-0.025,0.672 -0.041,1.35 -0.041,2.028c0,28.381 23.094,51.475 51.475,51.475c28.381,0 51.475,-23.094 51.475,-51.475c0,-7.053 -1.397,-13.878 -4.15,-20.287c-0.431,-1.007 0.031,-2.172 1.041,-2.604c1.003,-0.443 2.168,0.032 2.603,1.038c2.965,6.906 4.472,14.262 4.472,21.853c-0,30.572 -24.869,55.441 -55.441,55.441" style="fill:#652d90;fill-rule:nonzero;"/><path d="M133.254,208.619c-30.572,-0 -55.441,-24.869 -55.441,-55.441c0,-0.725 0.016,-1.447 0.044,-2.169c0.041,-1.1 0.978,-1.975 2.053,-1.912c1.094,0.04 1.95,0.959 1.91,2.053c-0.025,0.672 -0.041,1.35 -0.041,2.028c0,28.381 23.094,51.475 51.475,51.475c28.381,0 51.475,-23.094 51.475,-51.475c0,-7.053 -1.397,-13.878 -4.15,-20.287c-0.431,-1.007 0.031,-2.172 1.041,-2.604c1.003,-0.443 2.168,0.032 2.603,1.038c2.965,6.906 4.472,14.262 4.472,21.853c-0,30.572 -24.869,55.441 -55.441,55.441Z" style="fill:#fff;fill-rule:nonzero;stroke:#fff;stroke-width:2.34px;"/><path d="M250.766,151.075c-0,28.553 -10.244,54.753 -27.241,75.137l2.809,2.81c17.71,-21.113 28.397,-48.3 28.397,-77.947c0,-27.841 -9.165,-54.034 -26.512,-75.756c-0.681,-0.85 -1.925,-0.991 -2.785,-0.31c-0.856,0.682 -0.996,1.935 -0.312,2.791c16.775,21.003 25.644,46.344 25.644,73.275" style="fill:#e2e0df;fill-rule:nonzero;"/><path d="M250.766,151.075c-0,28.553 -10.244,54.753 -27.241,75.137l2.809,2.81c17.71,-21.113 28.397,-48.3 28.397,-77.947c0,-27.841 -9.165,-54.034 -26.512,-75.756c-0.681,-0.85 -1.925,-0.991 -2.785,-0.31c-0.856,0.682 -0.996,1.935 -0.312,2.791c16.775,21.003 25.644,46.344 25.644,73.275Z" style="fill:#fff;fill-rule:nonzero;stroke:#fff;stroke-width:2.34px;"/><path d="M199.768,247.881c-18.928,13.043 -41.838,20.706 -66.513,20.706c-64.797,-0 -117.509,-52.713 -117.509,-117.513c-0,-64.793 52.712,-117.506 117.509,-117.506c18.653,0 36.485,4.241 53,12.603c0.988,0.488 2.169,0.1 2.666,-0.875c0.494,-0.978 0.103,-2.169 -0.872,-2.665c-17.078,-8.644 -35.512,-13.029 -54.794,-13.029c-66.984,0 -121.478,54.491 -121.478,121.472c0,66.985 54.494,121.478 121.478,121.478c25.769,0 49.672,-8.09 69.353,-21.831l-2.84,-2.84Z" style="fill:#fff;fill-rule:nonzero;stroke:#fff;stroke-width:2.34px;"/><path d="M220.503,156.648c0,18.735 -6.103,36.063 -16.412,50.129l2.843,2.843c11.01,-14.809 17.535,-33.14 17.535,-52.972c-0,-18.45 -5.597,-36.146 -16.188,-51.184c-0.628,-0.894 -1.862,-1.109 -2.762,-0.481c-0.897,0.634 -1.138,1.494 -0.506,2.387c10.115,14.363 15.49,31.647 15.49,49.278" style="fill:#652d90;fill-rule:nonzero;"/><path d="M220.503,156.648c0,18.735 -6.103,36.063 -16.412,50.129l2.843,2.843c11.01,-14.809 17.535,-33.14 17.535,-52.972c-0,-18.45 -5.597,-36.146 -16.188,-51.184c-0.628,-0.894 -1.862,-1.109 -2.762,-0.481c-0.897,0.634 -1.138,1.494 -0.506,2.387c10.115,14.363 15.49,31.647 15.49,49.278Z" style="fill:#fff;fill-rule:nonzero;stroke:#fff;stroke-width:2.34px;"/><path d="M177.166,76.222c-13.493,-7.828 -25.997,-8.559 -41.681,-8.559c-49.066,0 -88.981,39.919 -88.981,88.984c-0,49.066 39.915,88.985 88.981,88.985c17.65,-0 34.1,-5.188 47.95,-14.085l-2.869,-2.868c-13.078,8.215 -28.528,12.984 -45.081,12.984c-46.878,0 -85.016,-38.137 -85.016,-85.016c0,-46.878 38.138,-85.018 85.016,-85.018c14.984,-0 24.906,2.278 40.938,8.065c0.156,0.057 0.853,-0.378 1.403,-1.325c0.55,-0.95 0.287,-1.597 -0.66,-2.147" style="fill:#652d90;fill-rule:nonzero;"/><path d="M177.166,76.222c-13.493,-7.828 -25.997,-8.559 -41.681,-8.559c-49.066,0 -88.981,39.919 -88.981,88.984c-0,49.066 39.915,88.985 88.981,88.985c17.65,-0 34.1,-5.188 47.95,-14.085l-2.869,-2.868c-13.078,8.215 -28.528,12.984 -45.081,12.984c-46.878,0 -85.016,-38.137 -85.016,-85.016c0,-46.878 38.138,-85.018 85.016,-85.018c14.984,-0 24.906,2.278 40.938,8.065c0.156,0.057 0.853,-0.378 1.403,-1.325c0.55,-0.95 0.287,-1.597 -0.66,-2.147Z" style="fill:#fff;fill-rule:nonzero;stroke:#fff;stroke-width:2.34px;"/></svg>